<svg width="100" height="18" viewBox="0 0 100 18" fill="none" xmlns="http://www.w3.org/2000/svg">
<path d="M33.5991 0.177187V0.354492H33.7764H33.9537V0.177187V-0.000117749H33.7764H33.5991V0.177187Z" fill="white"/>
<path d="M34.3086 0.177187V0.354492H67.1543H100V0.177187V-0.000117749H67.1543H34.3086V0.177187Z" fill="white"/>
<path d="M14.796 0.744812C14.5877 0.75811 14.5832 0.762543 14.5832 0.904387V1.05066L13.7765 1.07726C13.3377 1.09499 12.757 1.10829 12.491 1.10829H12.0123V1.259C12.0123 1.40527 12.0079 1.40527 11.7818 1.4363C11.6533 1.4496 11.4139 1.4629 11.2499 1.4629H10.9485V1.81751V2.17212H10.7712H10.5939V2.37159V2.57105H10.4166H10.2393V2.92566V3.28027H10.39H10.5362L10.5673 2.92566L10.5983 2.57105H10.7756H10.9485V2.37159V2.17212H11.1479H11.3474V1.99925V1.83081L11.6178 1.79978C11.7685 1.78648 12.2472 1.77318 12.6816 1.77318H13.4706L13.4839 1.60474L13.4972 1.44073L16.0682 1.42744C17.4822 1.41857 18.8031 1.42744 19.007 1.44073L19.3705 1.47176V1.62247V1.77318H20.1639C20.5983 1.77318 21.077 1.78648 21.2277 1.79978L21.4981 1.83081V1.99925V2.17212H21.6932H21.8926L21.9059 2.35829C21.9192 2.54446 21.9237 2.54889 22.0877 2.56219L22.2517 2.57549V2.37602V2.17212H22.0744H21.8971V1.99481V1.81751H21.7198C21.5424 1.81751 21.5424 1.81751 21.5424 1.6402V1.46733L21.179 1.45403L20.8111 1.44073L20.7978 1.27229L20.7845 1.10829H20.3722C20.1462 1.10829 19.5699 1.09499 19.0912 1.07726L18.218 1.05066V0.899954C18.218 0.75811 18.2135 0.753678 18.0318 0.749245C17.6284 0.735947 14.991 0.731515 14.796 0.744812Z" fill="white"/>
<path d="M4.03369 1.99457V2.17188H6.75976H9.48582V1.99457V1.81727H6.75976H4.03369V1.99457Z" fill="white"/>
<path d="M3.28027 2.34906V2.52637H3.63488H3.98949V2.34906V2.17176H3.63488H3.28027V2.34906Z" fill="white"/>
<path d="M2.5708 3.0807C2.5708 3.22697 2.57967 3.23584 2.72594 3.23584C2.87222 3.23584 2.88108 3.22697 2.88108 3.0807C2.88108 2.93442 2.87222 2.92556 2.72594 2.92556C2.57967 2.92556 2.5708 2.93442 2.5708 3.0807Z" fill="white"/>
<path d="M22.2959 3.10297C22.2959 3.27584 22.3003 3.28027 22.451 3.28027C22.6017 3.28027 22.6062 3.27584 22.6062 3.10297C22.6062 2.9301 22.6017 2.92566 22.451 2.92566C22.3003 2.92566 22.2959 2.9301 22.2959 3.10297Z" fill="white"/>
<path d="M47.4736 3.08072C47.4736 3.23142 47.4781 3.23586 47.6509 3.23586H47.8282V6.73763V10.2394H47.6509H47.4736V10.5719V10.9043H47.8282H48.1829V10.5497V10.1951H48.3602H48.5375V10.0178V9.84047H48.7148H48.8921V9.66316V9.48586H48.7148H48.5375V8.3777V7.26955H48.7148H48.8921V6.91494V6.56033H48.7148H48.5375V6.73763V6.91494H48.3602H48.1829V4.92025V2.92557H47.8282H47.4736V3.08072Z" fill="white"/>
<path d="M9.87613 3.64379L9.86283 4.01169L9.67666 4.02499L9.48606 4.03829V4.3929V4.74308H8.40007H7.31407V4.92038V5.09769H7.13677H6.95946V5.27499C6.95946 5.4523 6.95946 5.4523 6.78659 5.4523H6.61815L6.58712 5.72712C6.57382 5.87783 6.57382 6.12606 6.58712 6.2812L6.61815 6.56045H7.51797H8.42223V6.85744C8.42223 7.02588 8.40893 7.26081 8.39563 7.38935C8.3646 7.61542 8.3646 7.61985 8.20503 7.63315C8.04989 7.64645 8.04546 7.65531 8.03216 7.83262C8.01886 8.02322 8.01886 8.02322 7.84155 8.02322H7.66868V8.55513V9.08705H7.49138H7.31407V10.5498V12.0126H7.49138H7.66868V12.9213V13.83H7.84599H8.02329V14.0294V14.2289H8.22276H8.42223V14.4062V14.5835H8.59953H8.77684V15.3149V16.0463H8.93198C9.08269 16.0463 9.08712 16.0507 9.08712 16.2236V16.4009H9.84067H10.5942V16.2236V16.0463H10.7715H10.9488V15.4922V14.9381H16.4231H21.8974V15.3991C21.8974 15.6473 21.9107 15.9798 21.924 16.1305L21.955 16.4009H22.8549H23.7591V16.2236C23.7591 16.0507 23.7635 16.0463 23.9142 16.0463H24.0694V15.3149V14.5835H24.2423C24.4196 14.5835 24.4196 14.5835 24.4329 14.3929C24.4462 14.2067 24.4462 14.2067 24.6368 14.1934L24.8229 14.1801V13.8255V13.4753H25.0002H25.1775L25.1864 12.3761L25.1997 11.2812L25.3682 11.2679L25.5322 11.2546V10.3681V9.48599H25.3549H25.1775V8.93191V8.37783H25.0002H24.8229V8.02322V7.66861H24.6501C24.4728 7.66861 24.4728 7.66861 24.4595 7.47801C24.4462 7.3007 24.4417 7.29184 24.2866 7.27854L24.127 7.26524L24.096 6.99485C24.0472 6.51169 23.9453 6.56489 24.9914 6.55159L25.9089 6.53829L25.9222 6.36985C25.9355 6.21471 25.9444 6.20584 26.0907 6.20584C26.2369 6.20584 26.2414 6.20141 26.2414 6.03297C26.2414 5.8601 26.2369 5.85567 26.0774 5.84237L25.9089 5.82907L25.8956 5.46116L25.8823 5.09769H25.7095C25.5322 5.09769 25.5322 5.09769 25.5322 4.92038V4.74308H24.4462H23.3602V4.56577V4.38847H23.1829H23.0056V4.92038V5.4523H23.1829H23.3602V6.00638V6.56489L22.9967 6.55159L22.6288 6.53829L22.6155 6.36985L22.6022 6.20584H16.2414H9.88499V6.38315V6.56045H9.68553H9.48606V6.00638V5.4523H9.66336H9.84067V4.89822V4.34414H10.018H10.1953V3.81223V3.28031H10.0401H9.88943L9.87613 3.64379ZM11.7024 8.73244V9.08705H11.8797H12.057V9.64113V10.1952H11.8797H11.7024V10.3947V10.5941H11.5029C11.3079 10.5941 11.3034 10.5941 11.3034 10.7449V10.8911L11.033 10.9222C10.8823 10.9355 10.4701 10.9488 10.1244 10.9488H9.48606V10.7714V10.5986L9.12258 10.5853L8.75468 10.572L8.74138 10.408C8.72808 10.2528 8.71921 10.244 8.56407 10.2307C8.4045 10.2174 8.40007 10.2129 8.38677 10.0268C8.37347 9.8406 8.37347 9.8406 8.19616 9.8406H8.01886L8.03216 9.64999C8.04546 9.46825 8.04989 9.46382 8.21389 9.45052L8.3779 9.43723V9.08262V8.73244H8.57737H8.77684V8.55513V8.37783H10.2396H11.7024V8.73244ZM19.7254 8.55513V8.73244H19.9027H20.08V9.8406V10.9488H19.9027H19.7254V11.1261V11.3034H19.5481H19.3708V11.4807V11.658H16.2458H13.1208V11.4807V11.3034H12.9435H12.7662V10.0179V8.73244H12.9435H13.1208V8.55513V8.37783H16.4231H19.7254V8.55513ZM24.0694 8.55513V8.73244H24.2689H24.4683V9.48599V10.2395H24.2955C24.1226 10.2395 24.1182 10.244 24.1049 10.4035L24.0916 10.572L23.7281 10.5853L23.3602 10.5986V10.7714V10.9488H22.4515H21.5428V10.7759V10.6074L21.1926 10.5764L20.8469 10.5454L20.8158 10.3149C20.8025 10.1863 20.7892 9.77854 20.7892 9.4062V8.73244H20.9666H21.1439V8.55513V8.37783H22.6066H24.0694V8.55513ZM10.1332 12.4115C10.2263 12.4115 10.2396 12.4337 10.2396 12.5888V12.7661H10.4169H10.5942V13.1429V13.5197H10.4213C10.2485 13.5197 10.244 13.5241 10.2307 13.6837L10.2174 13.8521L9.66336 13.8654C9.35751 13.8743 8.94528 13.8654 8.74581 13.8521L8.3779 13.8211V13.6482C8.3779 13.4753 8.3779 13.4753 8.2006 13.4753H8.02329V13.1207V12.7661H8.2006C8.3779 12.7661 8.3779 12.7661 8.3779 12.5888V12.4159L8.94528 12.3982C9.25556 12.3894 9.6279 12.3894 9.76975 12.3982C9.91159 12.4027 10.08 12.4115 10.1332 12.4115ZM24.4151 12.4337C24.4595 12.478 24.455 13.7723 24.4107 13.8122C24.3885 13.8344 23.9763 13.8566 23.4887 13.8654L22.6066 13.8831V13.7014V13.5197H22.4293H22.2476L22.2609 13.1296L22.2742 12.744L22.4426 12.7307C22.5978 12.7174 22.6066 12.7085 22.6066 12.5711C22.6066 12.4913 22.6199 12.4115 22.6377 12.3938C22.6775 12.3583 24.3752 12.3938 24.4151 12.4337ZM18.9719 13.4975V14.2289H18.7946H18.6173V14.4062V14.5835H16.4231H14.229V14.4106C14.229 14.2333 14.229 14.2333 14.0428 14.22L13.8522 14.2067L13.8478 13.7856C13.8478 13.5551 13.8522 13.2316 13.8655 13.0631L13.8877 12.7661H16.4275H18.9719V13.4975Z" fill="white"/>
<path d="M2.21631 3.81195C2.21631 3.98483 2.22074 3.98926 2.37145 3.98926C2.52216 3.98926 2.52659 3.98483 2.52659 3.81195C2.52659 3.63908 2.52216 3.63465 2.37145 3.63465C2.22074 3.63465 2.21631 3.63908 2.21631 3.81195Z" fill="white"/>
<path d="M22.6509 3.98914V4.34375H22.806H22.9612V3.98914V3.63453H22.806H22.6509V3.98914Z" fill="white"/>
<path d="M35.7715 3.83411V4.03358H35.5942C35.4213 4.03358 35.4169 4.03801 35.4169 4.18429V4.335L35.0667 4.36603L34.7165 4.39706L34.6855 4.72064L34.6545 5.04865L34.4949 5.06195C34.3353 5.07525 34.3309 5.07968 34.3176 5.26142C34.3043 5.45202 34.3043 5.45202 34.127 5.45202H33.9541V5.82879V6.20557H34.1314H34.3087V5.82879V5.45202H34.486H34.6633V5.27472C34.6633 5.09741 34.6633 5.09741 34.8362 5.09741C35.0135 5.09741 35.0135 5.09741 35.0268 4.90681C35.0401 4.72064 35.0401 4.72064 35.2307 4.70734C35.408 4.69404 35.4169 4.68961 35.4169 4.54776V4.40149L35.6873 4.37046C35.838 4.35716 36.0773 4.34386 36.2192 4.34386H36.4807V4.16656V3.98925H37.4115H38.3424V4.34386V4.69847H38.5197H38.697V4.16656V3.63464H37.2342H35.7715V3.83411Z" fill="white"/>
<path d="M1.81738 4.56564V4.74294H0.908688H0V5.27486V5.80677H0.731383H1.46277V6.00624V6.20571H1.28546H1.10816V6.56032V6.91493H0.935284H0.762411L0.731383 7.2917L0.700355 7.66848H0.554078H0.407801L0.376773 7.96103C0.359043 8.1206 0.359043 8.68798 0.376773 9.22433L0.412234 10.1951H0.558511C0.704787 10.1951 0.70922 10.1995 0.70922 10.3724C0.70922 10.5497 0.70922 10.5497 0.882092 10.5497C1.05496 10.5497 1.0594 10.5453 1.0727 10.3812L1.08599 10.2172H1.64007H2.19415L2.20745 10.3812C2.22074 10.5453 2.22518 10.5497 2.39805 10.5497C2.59309 10.5497 2.59309 10.5453 2.54433 11.0328L2.5133 11.3032H1.81294H1.10816V11.4805V11.6578H1.28546H1.46277V12.3892V13.1206H2.16755H2.86791L2.8945 12.8192C2.91223 12.6552 2.92553 12.407 2.92553 12.2651V12.0124H4.74291H6.56028V11.8573V11.7022H5.92199C5.57624 11.7022 5.16401 11.6889 5.0133 11.6756L4.74291 11.6445V11.0993V10.5497H5.47429H6.20567V10.3945C6.20567 10.2438 6.21011 10.2394 6.38298 10.2394H6.56028V10.0399V9.84046H5.45213H4.34397V9.66316V9.48585H4.16667H3.98936V8.63036C3.98936 8.16493 4.00266 7.67291 4.01596 7.54436L4.04699 7.31387H4.21543C4.38387 7.31387 4.3883 7.3183 4.3883 7.46901C4.3883 7.61972 4.39273 7.62415 4.5656 7.62415H4.74291V7.44685V7.26954H5.27482H5.80674V6.91493V6.56032H5.65603H5.50975L5.47872 6.20571L5.4477 5.8511L5.08422 5.84667C4.88475 5.84224 4.07358 5.8378 3.28014 5.83337L1.83954 5.82894L1.82624 5.46103L1.81294 5.09755H1.99468H2.17199V4.74294V4.38833H1.99468H1.81738V4.56564ZM3.00975 7.29614L3.28014 7.32717V7.67291V8.02309H3.45745H3.63475V8.20039V8.3777H3.45745H3.28014V8.75447V9.13124H2.42908C1.95922 9.13124 1.47163 9.11795 1.34309 9.10465C1.11702 9.07362 1.11259 9.07362 1.09929 8.91404C1.08599 8.7589 1.07713 8.75447 0.899823 8.74117L0.70922 8.72787V8.37326V8.02309H0.882092C1.0594 8.02309 1.0594 8.02309 1.0727 7.83248L1.08599 7.64631L1.4539 7.63302L1.81738 7.61972V7.44685V7.26954H2.27837C2.5266 7.26954 2.85904 7.28284 3.00975 7.29614Z" fill="white"/>
<path d="M63.1647 5.64719V5.7979L62.7879 5.82893L62.4111 5.85996V6.01067V6.16138H63.342H64.2728V6.33425C64.2728 6.50712 64.2773 6.51155 64.4413 6.52485L64.6053 6.53815L64.6186 6.90162L64.6319 7.26953H64.8047H64.9821V6.74205V6.21013L64.7959 6.19684C64.6097 6.18354 64.6053 6.17911 64.592 6.01953L64.5787 5.85552L64.2374 5.84223L63.8961 5.82893L63.8828 5.66049L63.8695 5.49648H63.5149H63.1647V5.64719Z" fill="white"/>
<path d="M67.9076 5.67367V5.85097H67.553H67.1984V6.02828C67.1984 6.20558 67.1984 6.20558 67.0255 6.20558H66.8526L66.8216 6.56019L66.7906 6.9148H66.6177H66.4448V7.26941V7.62402H66.6221H66.7994V7.26941V6.9148H66.9723C67.1496 6.9148 67.1496 6.9148 67.1629 6.7242C67.1762 6.54246 67.1806 6.53803 67.3402 6.52473C67.4954 6.51143 67.5042 6.50257 67.5175 6.34743L67.5308 6.18342L68.6301 6.17012L69.725 6.16126V6.36073V6.56019H69.9023H70.0796V6.20558V5.85097H69.8181C69.6762 5.85097 69.4368 5.83768 69.2861 5.82438L69.0157 5.79335V5.64707V5.49636H68.4617H67.9076V5.67367Z" fill="white"/>
<path d="M81.064 5.66024L81.0507 5.82868L80.6872 5.84197L80.3193 5.85527V6.02371V6.19658L81.064 6.16999C81.4718 6.16112 81.9594 6.16112 82.15 6.17885L82.4913 6.21431V6.38719C82.4913 6.56006 82.4913 6.56006 82.6686 6.56006H82.8459V6.38275V6.20545H82.6686H82.4913V6.02814V5.85084H82.1367H81.7821V5.67353V5.49623H81.4319H81.0773L81.064 5.66024Z" fill="white"/>
<path d="M87.5887 5.65176V5.80691H87.3582C87.2297 5.80691 86.9903 5.8202 86.8263 5.83793L86.5249 5.86453V6.01081V6.16152H87.2563C88.0896 6.16152 88.0143 6.20584 87.9611 5.72712L87.93 5.49662H87.7616C87.5932 5.49662 87.5887 5.50105 87.5887 5.65176Z" fill="white"/>
<path d="M92.0214 5.6738V5.85111H91.6446H91.2678V6.02841V6.20572H91.0905H90.9132V6.38302V6.56033H90.7359H90.5586V7.09224V7.62415H90.7137H90.8689V7.36263C90.8689 7.22079 90.8822 6.98142 90.8955 6.83072L90.9265 6.56033H91.2722H91.6224V6.36086V6.16139H91.9992H92.376V6.00625C92.376 5.85554 92.3804 5.85111 92.5533 5.85111C92.7261 5.85111 92.7306 5.85554 92.7306 6.00625V6.16139H93.2847H93.8387V6.33869V6.516H94.016H94.1933V6.71547V6.91494H94.3662H94.5391L94.5524 7.766C94.5613 8.23586 94.5657 8.81653 94.5568 9.05146L94.5391 9.48586H94.3662C94.1933 9.48586 94.1933 9.48586 94.1933 9.66316C94.1933 9.84047 94.1933 9.84047 94.0205 9.84047C93.8432 9.84047 93.8432 9.84047 93.8299 10.0266L93.8166 10.2172L92.7217 10.2305L91.6224 10.2394V10.0399V9.84047H91.4451H91.2678V9.66316V9.48586H91.0683H90.8689V9.13125V8.77664H90.7137H90.5586V9.30855V9.84047H90.7359H90.9132V10.0178V10.1951H91.0905C91.2678 10.1951 91.2678 10.1951 91.2678 10.3679V10.5408L91.6446 10.5719L92.0214 10.6029V10.7536V10.9043H92.7306H93.4398V10.727V10.5497H93.79H94.1446L94.1579 10.3812C94.1712 10.2217 94.1756 10.2172 94.3618 10.2039L94.548 10.1906V9.83603V9.48586H94.7253H94.9026V8.2004V6.91494H94.7253H94.548V6.56476V6.21901L94.1933 6.18798L93.8387 6.15696V6.00625V5.85997L93.462 5.82894L93.0852 5.79791V5.6472C93.0852 5.4965 93.0852 5.4965 92.8857 5.4965C92.6863 5.4965 92.6863 5.4965 92.6863 5.65164C92.6863 5.79791 92.6774 5.80678 92.5311 5.80678C92.3848 5.80678 92.376 5.79791 92.376 5.65164C92.376 5.50093 92.3715 5.4965 92.1987 5.4965H92.0214V5.6738Z" fill="white"/>
<path d="M97.4735 5.67379V5.85109H97.1189H96.7643V6.0284V6.2057H96.587H96.4097V6.56031V6.91492H96.5648C96.72 6.91492 96.72 6.91492 96.72 6.71545V6.51599H96.8973H97.0746V6.33868V6.16138H98.0054H98.9363V6.36084V6.56031H99.1136H99.2909V6.91492V7.26953H99.4682H99.6455V6.73762V6.2057H99.4682C99.2909 6.2057 99.2909 6.2057 99.2909 6.0284V5.85552L98.9274 5.84223L98.5595 5.82893L98.5462 5.66049L98.5329 5.49648H98.001H97.4735V5.67379Z" fill="white"/>
<path d="M44.3841 5.83791L43.8389 5.85564V6.00635V6.16149H44.1935H44.5481V6.53827V6.91504H44.7254H44.9027V6.56486V6.21468L45.2573 6.18366L45.6119 6.15263V6.00192C45.6119 5.88667 45.5942 5.85121 45.5277 5.85121C45.4834 5.85121 45.3282 5.84234 45.1864 5.83791C45.0445 5.82905 44.6811 5.82905 44.3841 5.83791Z" fill="white"/>
<path d="M50.0134 5.83792L49.6455 5.85565V6.00636V6.1615H50.2838C50.6296 6.1615 51.0418 6.1748 51.1925 6.1881L51.4629 6.21913V6.3654C51.4629 6.51168 51.4673 6.51611 51.6402 6.51611C51.8131 6.51611 51.8175 6.51168 51.8175 6.36097C51.8175 6.21026 51.8131 6.20583 51.6402 6.20583H51.4629V6.02852V5.85122H51.2102C51.0684 5.85122 50.8246 5.84235 50.665 5.83349C50.5054 5.82462 50.2129 5.82906 50.0134 5.83792Z" fill="white"/>
<path d="M55.8644 5.8378L55.4965 5.85553V6.00181V6.15252L55.1463 6.18355L54.7961 6.21457L54.7651 6.56475L54.734 6.91493H54.5612C54.3883 6.91493 54.3883 6.91493 54.3883 7.09223V7.26954H54.5656H54.7429V7.09223V6.91493H54.9202C55.0975 6.91493 55.0975 6.91493 55.0975 6.74206C55.0975 6.56475 55.0975 6.56475 55.2881 6.55145C55.4743 6.53816 55.4743 6.53816 55.4876 6.34755L55.5009 6.16138H56.3121C56.7598 6.16138 57.2429 6.17468 57.3936 6.18798L57.664 6.21901L57.6773 6.37858C57.6906 6.53372 57.6995 6.53816 57.8812 6.55145C58.0674 6.56475 58.0674 6.56475 58.0674 6.74206C58.0674 6.91493 58.0674 6.91493 58.2447 6.91493H58.422V7.46901V8.02308H56.4051H54.3883V7.82362V7.62415H54.211H54.0337V8.35553V9.08691H54.211H54.3883V8.7323V8.37769H56.5825H58.7766V7.64631V6.91493H58.6037H58.4309L58.3998 6.56032L58.3688 6.20571H58.0186H57.6684V6.0284V5.8511H57.3271C57.1365 5.8511 56.8129 5.84223 56.6046 5.8378C56.3963 5.82894 56.0638 5.82894 55.8644 5.8378Z" fill="white"/>
<path d="M60.7844 5.83798C60.6026 5.85571 60.5938 5.86458 60.5938 6.00199V6.1527L60.9705 6.18373L61.3473 6.21475V6.59153V6.96387L61.5157 6.95057C61.6753 6.93727 61.6797 6.93284 61.693 6.7511L61.7063 6.56936L62.0609 6.53834L62.4111 6.50731V6.3566V6.20589H62.0565H61.7019V6.03302V5.86458L61.4315 5.83355C61.2808 5.82025 61.1168 5.81138 61.0636 5.81582C61.0104 5.82025 60.8863 5.82912 60.7844 5.83798Z" fill="white"/>
<path d="M78.8699 5.83781L78.502 5.85554V6.00625V6.15696L78.8699 6.17025L79.2333 6.18355L79.2245 7.84579C79.22 8.75891 79.2156 9.67203 79.2156 9.8715L79.2112 10.2394H78.8566H78.502V10.5719V10.9043H79.3885H80.275V10.5719V10.2438L79.9337 10.2305L79.5879 10.2172L79.5746 8.56387L79.5658 6.91494H79.7387C79.916 6.91494 79.916 6.91494 79.9293 6.72433C79.9426 6.54259 79.947 6.53816 80.111 6.52486C80.2661 6.51157 80.275 6.5027 80.275 6.35642V6.20572H79.9204H79.5658V6.00625V5.80678L79.4018 5.81564C79.3087 5.82008 79.0693 5.83337 78.8699 5.83781Z" fill="white"/>
<path d="M39.8052 6.00178V6.14806L40.3814 6.17908C40.7006 6.19682 41.1084 6.19682 41.2901 6.17908L41.6226 6.14806V6.00178V5.85107H40.7139H39.8052V6.00178Z" fill="white"/>
<path d="M72.6506 6.0284V6.2057H72.4733H72.296V6.38301V6.56031H72.1187H71.9414V6.91492V7.26953H72.0921H72.2428L72.2739 6.91935L72.3049 6.56918L72.6551 6.53815L73.0052 6.50712V6.33425V6.16138H73.9139H74.8226V6.00623V5.85109H73.7366H72.6506V6.0284Z" fill="white"/>
<path d="M75.9308 6.38302V6.91494H75.7535H75.5762V6.73763V6.56033H75.3989H75.2215V6.73763V6.91494H75.3989H75.5762V7.1144V7.31387H75.7535H75.9308V8.2004V9.08692H75.7535H75.5762V9.46369V9.84047H75.3767H75.1772V10.0133V10.1818L74.9467 10.2128C74.8182 10.2261 74.4857 10.2394 74.2153 10.2394H73.7145V10.3945C73.7145 10.5408 73.7056 10.5497 73.5593 10.5497C73.413 10.5497 73.4042 10.5408 73.4042 10.3945C73.4042 10.2394 73.4042 10.2394 73.2047 10.2394H73.0052V10.0399V9.84047H72.8058H72.6063V9.66759C72.6063 9.49472 72.6019 9.49029 72.4423 9.47699C72.2783 9.46369 72.2739 9.45926 72.2606 9.27309C72.2473 9.09135 72.2428 9.08692 72.0921 9.08692H71.9414V9.46369V9.84047H72.1187H72.296V10.0178V10.1951H72.4733C72.6506 10.1951 72.6506 10.1951 72.6506 10.3679V10.5364L73.0052 10.5674L73.3598 10.5984V10.7536V10.9043H73.9139H74.468V10.727V10.5497H74.8226H75.1772V10.3724V10.1951H75.3767H75.5762V10.0178V9.84047H75.7535H75.9308V10.3724V10.9043H76.4627H76.9946V10.5719V10.2438L76.6533 10.2305L76.3075 10.2172L76.2942 8.03196L76.2854 5.85111H76.1081H75.9308V6.38302Z" fill="white"/>
<path d="M84.7075 6.00625V6.16139H85.0577H85.4034L85.4345 6.5027C85.4478 6.6933 85.4611 7.59756 85.4566 8.51511L85.4522 10.1862L85.0799 10.2172L84.7075 10.2483V10.5763V10.9043H85.594H86.4806V10.5719V10.2438L86.1393 10.2305L85.7935 10.2172L85.7802 8.39543L85.7713 6.56919L86.126 6.53816L86.4806 6.50713V6.35642V6.20572H86.126H85.7713V6.02841V5.85111H85.2394H84.7075V6.00625Z" fill="white"/>
<path d="M88.3423 5.94861C88.3423 6.00623 88.3556 6.15251 88.3689 6.28106C88.3999 6.50712 88.3999 6.51155 88.5595 6.52485L88.7191 6.53815L88.7324 6.90162L88.7457 7.26953H88.8964H89.0515V6.73762V6.2057H88.8742H88.6969V6.0284V5.85109H88.5196C88.3644 5.85109 88.3423 5.86439 88.3423 5.94861Z" fill="white"/>
<path d="M48.936 6.36097C48.936 6.51168 48.9405 6.51611 49.1133 6.51611C49.2862 6.51611 49.2906 6.51168 49.2906 6.36097C49.2906 6.21026 49.2862 6.20583 49.1133 6.20583C48.9405 6.20583 48.936 6.21026 48.936 6.36097Z" fill="white"/>
<path d="M74.8672 6.38275C74.8672 6.55563 74.8716 6.56006 75.0223 6.56006C75.173 6.56006 75.1775 6.55563 75.1775 6.38275C75.1775 6.20988 75.173 6.20545 75.0223 6.20545C74.8716 6.20545 74.8672 6.20988 74.8672 6.38275Z" fill="white"/>
<path d="M40.9131 6.89276V7.26953H41.0682H41.2234V6.89276V6.51599H41.0682H40.9131V6.89276Z" fill="white"/>
<path d="M33.5991 7.29157V8.02295H33.7676H33.936L33.9316 7.29157V6.56018H33.7676H33.5991V7.29157Z" fill="white"/>
<path d="M51.8619 6.73763V6.91494H52.0392H52.2165V8.17823V9.44153H52.0392H51.8619V9.641V9.84047H51.6625H51.463V10.0133V10.1818L51.1926 10.2128C51.0419 10.2261 50.5499 10.2394 50.1066 10.2394H49.291V10.3945C49.291 10.5453 49.2954 10.5497 49.4683 10.5497H49.6456V10.727V10.9043H50.1997H50.7538V10.7536V10.6029L51.1084 10.5719L51.463 10.5408V10.3679V10.1951H51.6625H51.8619V10.0178V9.84047H52.0392H52.2165V9.641C52.2165 9.44153 52.2165 9.44153 52.3673 9.44153H52.518L52.5446 9.07362C52.5579 8.87415 52.5623 8.47079 52.5534 8.17823C52.549 7.88568 52.5401 7.48231 52.5357 7.27841L52.5268 6.91494H52.3717C52.221 6.91494 52.2165 6.9105 52.2165 6.73763V6.56033H52.0392H51.8619V6.73763Z" fill="white"/>
<path d="M44.1935 7.29145V7.66822H44.0162H43.8389V8.02283V8.37744H43.9896H44.1359L44.1669 8.02283L44.1979 7.66822H44.3442H44.4905L44.5215 7.33577C44.5392 7.1496 44.5392 6.98116 44.5259 6.959C44.5126 6.93241 44.4284 6.91468 44.3442 6.91468H44.1935V7.29145Z" fill="white"/>
<path d="M61.3473 8.72345V10.1862L60.9705 10.2172L60.5938 10.2483V10.5763V10.9043H61.3251H62.0565V10.727V10.5497H62.2338C62.4067 10.5497 62.4111 10.5453 62.4111 10.3945V10.2438L62.0477 10.2305L61.6797 10.2172V8.75447V7.29171L61.5157 7.27841L61.3473 7.26511V8.72345Z" fill="white"/>
<path d="M96.4097 7.46876C96.4097 7.66823 96.4097 7.66823 96.5648 7.66823C96.7111 7.66823 96.72 7.6771 96.72 7.82337C96.72 7.97852 96.72 7.97852 96.9194 7.97852C97.1189 7.97852 97.1189 7.97852 97.1189 7.82337C97.1189 7.66823 97.1189 7.66823 96.9194 7.66823H96.72V7.46876C96.72 7.2693 96.72 7.2693 96.5648 7.2693C96.4097 7.2693 96.4097 7.2693 96.4097 7.46876Z" fill="white"/>
<path d="M41.2676 7.84578V8.37769H41.4449H41.6222V8.7323V9.08691H41.7995H41.9768V8.7323V8.37769H41.7995H41.6222V8.11617C41.6222 7.97433 41.6089 7.73496 41.5956 7.58425L41.5646 7.31386H41.4183H41.2676V7.84578Z" fill="white"/>
<path d="M66.0903 8.02283V8.37744H66.2721H66.4582L66.4272 8.10705C66.4139 7.95634 66.4006 7.79677 66.4006 7.75244C66.4006 7.68595 66.3652 7.66822 66.2455 7.66822H66.0903V8.02283Z" fill="white"/>
<path d="M71.5869 8.20051V8.73242H71.7421H71.8972V8.20051V7.66859H71.7421H71.5869V8.20051Z" fill="white"/>
<path d="M90.2041 8.20014C90.2041 8.37301 90.2085 8.37744 90.3592 8.37744C90.51 8.37744 90.5144 8.37301 90.5144 8.20014C90.5144 8.02726 90.51 8.02283 90.3592 8.02283C90.2085 8.02283 90.2041 8.02726 90.2041 8.20014Z" fill="white"/>
<path d="M97.1187 8.20051V8.37781H97.85H98.5814V8.55512V8.73242H98.936H99.2906V8.55512V8.37781H99.1133H98.936V8.20051V8.0232H98.0273H97.1187V8.20051Z" fill="white"/>
<path d="M33.9541 8.7323V9.08691H34.1314H34.3087V8.7323V8.37769H34.1314H33.9541V8.7323Z" fill="white"/>
<path d="M43.4399 8.7546V9.13137H43.2626H43.0853V9.48598V9.84059H42.7085H42.3318V9.48598V9.13137H42.15H41.9639L41.9949 9.36187C42.0082 9.49041 42.0215 9.64999 42.0215 9.71648C42.0215 9.82729 42.0392 9.84059 42.1722 9.84059H42.3185L42.3495 10.111C42.3628 10.2617 42.3761 10.5498 42.3761 10.7493C42.3761 10.9487 42.3628 11.2369 42.3495 11.3876L42.3185 11.658H42.15H41.9772V12.0126V12.3672H42.1545H42.3318V12.0126V11.658H42.5091H42.682L42.6953 11.2901L42.7085 10.9266L42.8726 10.9133L43.0366 10.9L43.0499 10.5587L43.0632 10.2174L43.2538 10.2041L43.4399 10.1908V9.65885V9.13137H43.6172H43.7945V8.7546V8.37783H43.6172H43.4399V8.7546Z" fill="white"/>
<path d="M99.3039 8.80323C99.2906 8.84313 99.2906 9.09135 99.3083 9.35731L99.3349 9.84047H99.1355H98.936V10.0399V10.2394H97.8278H96.7197V9.86263V9.48586H96.569H96.4227L96.3961 9.75181C96.3784 9.89809 96.3784 10.1375 96.3961 10.2837L96.4227 10.5497H96.7685H97.1186V10.727V10.9043H97.85H98.5814V10.7536V10.6029L98.936 10.5719L99.2906 10.5408V10.3679C99.2906 10.1951 99.2906 10.1951 99.4679 10.1951H99.6452V9.46369V8.73231H99.4901C99.3881 8.73231 99.3216 8.75891 99.3039 8.80323Z" fill="white"/>
<path d="M66.4448 9.46369V9.84047H66.6221H66.7994V10.0178V10.1951H66.9989H67.1984V10.3724V10.5497H67.553H67.9076V10.727V10.9043H68.6124H69.3216L69.3349 10.7359L69.3482 10.5719L69.7161 10.5586L70.0796 10.5453V10.3724C70.0796 10.1951 70.0796 10.1951 70.2569 10.1951H70.4342V10.0178V9.84047H70.0796H69.725V10.0133V10.1862L69.3615 10.2172C69.1576 10.2305 68.6656 10.2394 68.2622 10.2305L67.5308 10.2172L67.5175 10.0266C67.5042 9.84047 67.5042 9.84047 67.3269 9.84047C67.154 9.84047 67.154 9.84047 67.154 9.66316V9.48586H66.9767H66.7994V9.28639V9.08692H66.6221H66.4448V9.46369Z" fill="white"/>
<path d="M34.3264 9.40138C34.3397 9.55209 34.353 9.71167 34.353 9.75599C34.353 9.82248 34.3885 9.84021 34.5303 9.84021H34.7076V10.0175V10.1948H35.0623H35.4169V10.0175V9.84021H35.2174H35.0179V9.66291V9.4856H34.8406H34.6633V9.3083V9.13099H34.4816H34.2954L34.3264 9.40138Z" fill="white"/>
<path d="M54.406 9.40164C54.4193 9.55235 54.4326 9.71192 54.4326 9.75625C54.4326 9.82274 54.4681 9.84047 54.6099 9.84047H54.7872V10.0178V10.1951H54.9645H55.1418V10.3724V10.5497H55.4965H55.8511V10.727V10.9043H56.5824H57.3138V10.7536V10.6029L57.6684 10.5719L58.023 10.5408V10.3679V10.1951H58.2225H58.422V10.0178V9.84047H58.2225H58.023V10.0133V10.1862L57.6596 10.2172C57.4557 10.2305 56.8839 10.2394 56.383 10.2305L55.4743 10.2172L55.461 10.0266L55.4477 9.84047H55.1197H54.7961L54.7651 9.48586L54.734 9.13125H54.5567H54.375L54.406 9.40164Z" fill="white"/>
<path d="M48.936 10.0175C48.936 10.1904 48.9405 10.1948 49.0912 10.1948C49.2419 10.1948 49.2463 10.1904 49.2463 10.0175C49.2463 9.84465 49.2419 9.84021 49.0912 9.84021C48.9405 9.84021 48.936 9.84465 48.936 10.0175Z" fill="white"/>
<path d="M35.4165 10.3945V10.5497H35.7711H36.1257V10.727V10.9043H36.3252C36.5247 10.9043 36.5247 10.9043 36.5247 10.7492C36.5247 10.6029 36.5335 10.594 36.6798 10.594C36.8261 10.594 36.8349 10.6029 36.8349 10.7492V10.9043H37.389H37.9431V10.727V10.5497H38.1426C38.342 10.5497 38.342 10.5497 38.342 10.3945V10.2394H36.8793H35.4165V10.3945Z" fill="white"/>
<path d="M0.753418 11.1036C0.753418 11.2499 0.762283 11.2588 0.90856 11.2588C1.05484 11.2588 1.0637 11.2499 1.0637 11.1036C1.0637 10.9574 1.05484 10.9485 0.90856 10.9485C0.762283 10.9485 0.753418 10.9574 0.753418 11.1036Z" fill="white"/>
<path d="M41.6224 12.7658V13.1204H41.4496C41.2722 13.1204 41.2722 13.1204 41.2589 13.3065L41.2457 13.4971L40.9043 13.4838L40.5586 13.4705V13.6523V13.8296H41.4451H42.3316V13.6523V13.475H42.1543H41.977V12.9431V12.4112H41.7997H41.6224V12.7658Z" fill="white"/>
<path d="M33.7897 16.7863C33.6036 16.8041 33.5991 16.8085 33.5991 16.9592V17.1099H35.7622C36.9502 17.1099 51.8039 17.1144 68.772 17.1144C85.7401 17.1188 99.7073 17.1188 99.8137 17.1144C99.9954 17.1099 99.9998 17.1055 99.9998 16.9592C99.9998 16.8129 99.9998 16.8129 99.7516 16.7819C99.5034 16.7553 34.131 16.7597 33.7897 16.7863Z" fill="white"/>
</svg>
